<svg width="53" height="51" viewBox="0 0 53 51" fill="none" xmlns="http://www.w3.org/2000/svg">
<g clip-path="url(#clip0_10_11)">
<path d="M50 26.1252C50 12.308 38.8187 1.12523 25 1.12523C11.1828 1.12523 0 12.3065 0 26.1252C0 39.82 11.0878 51.1252 25 51.1252C38.855 51.1252 50 39.883 50 26.1252ZM25 4.05492C37.1696 4.05492 47.0703 13.9556 47.0703 26.1252C47.0703 30.577 45.7463 34.856 43.2907 38.4803C33.4305 27.8739 16.5874 27.8548 6.70929 38.4803C4.25377 34.856 2.92969 30.577 2.92969 26.1252C2.92969 13.9556 12.8304 4.05492 25 4.05492ZM8.53656 40.8225C17.3034 30.989 32.6988 30.9913 41.4631 40.8225C32.6668 50.6637 17.3366 50.6667 8.53656 40.8225Z" fill="#102923"/>
<path d="M25 27.5902C29.8462 27.5902 33.7891 23.6472 33.7891 18.8011V15.8714C33.7891 11.0252 29.8462 7.08232 25 7.08232C20.1538 7.08232 16.2109 11.0252 16.2109 15.8714V18.8011C16.2109 23.6472 20.1538 27.5902 25 27.5902ZM19.1406 15.8714C19.1406 12.6403 21.769 10.012 25 10.012C28.231 10.012 30.8594 12.6403 30.8594 15.8714V18.8011C30.8594 22.0321 28.231 24.6605 25 24.6605C21.769 24.6605 19.1406 22.0321 19.1406 18.8011V15.8714Z" fill="#102923"/>
</g>
<defs>                                                  
<clipPath id="clip0_10_11">
<rect width="53" height="50.0259" fill="white" transform="translate(0 0.388489)"/>
</clipPath>
</defs>
</svg>
